<svg width="76" height="24" viewBox="0 0 76 24" fill="none" xmlns="http://www.w3.org/2000/svg">
<g clip-path="url(#clip0_104_2042)">
<path d="M11.2711 0.0039854C9.85064 0.0403174 8.44763 0.347887 7.13339 0.913165C5.73149 1.51621 4.45736 2.40049 3.38437 3.51473C2.3115 4.6289 1.46018 5.95162 0.879486 7.40731C0.298777 8.86319 -0.000385284 10.4242 -0.000396729 12.0001L0.00350952 12.296C0.0385456 13.7709 0.33523 15.2273 0.879486 16.5919C1.4602 18.0478 2.31135 19.3711 3.38437 20.4854C4.4574 21.5997 5.73141 22.4839 7.13339 23.087C8.44765 23.6523 9.85061 23.9598 11.2711 23.9962L11.5553 24.0001C13.0728 24.0001 14.5761 23.69 15.9781 23.087C17.3799 22.484 18.6532 21.5995 19.7262 20.4854C20.7992 19.3711 21.6513 18.0478 22.232 16.5919C22.7762 15.2273 23.073 13.7708 23.108 12.296L23.1109 12.0001C23.1109 10.4243 22.8127 8.86318 22.232 7.40731C21.6513 5.95152 20.7991 4.62896 19.7262 3.51473C18.6533 2.40061 17.3799 1.51618 15.9781 0.913165C14.5761 0.310117 13.0728 7.9155e-05 11.5553 7.9155e-05L11.2711 0.0039854ZM18.1812 19.6446C17.3455 20.4257 16.3873 21.0552 15.3463 21.503C14.4192 21.9018 13.44 22.1491 12.4439 22.2423V13.6866L18.1812 19.6446ZM10.6666 22.2413C9.67075 22.1481 8.69214 21.9017 7.76523 21.503C6.56356 20.9861 5.47206 20.2276 4.55234 19.2725C3.63271 18.3175 2.90263 17.1844 2.40488 15.9366C1.90713 14.6887 1.65099 13.3508 1.65097 12.0001L1.6539 11.7471C1.68385 10.4826 1.93824 9.2335 2.40488 8.06356C2.90263 6.81582 3.63271 5.68164 4.55234 4.72664C5.47195 3.77176 6.56377 3.01398 7.76523 2.49715C8.69215 2.09847 9.67073 1.85108 10.6666 1.75789V22.2413ZM12.4439 1.75692C13.44 1.85017 14.4191 2.09835 15.3463 2.49715C16.5478 3.01402 17.6395 3.7717 18.5592 4.72664C19.4789 5.6817 20.2089 6.81572 20.7066 8.06356C21.2044 9.31143 21.4605 10.6494 21.4605 12.0001L21.4566 12.253C21.4267 13.5175 21.1733 14.7667 20.7066 15.9366C20.3703 16.7798 19.9254 17.5691 19.3902 18.2882L12.4449 11.0772L12.4439 11.0782V1.75692Z" fill="#D1D5DB"/>
</g>
<path d="M61.7809 2.52769H69.1861C70.5991 2.52769 71.8158 2.79808 72.8363 3.33886C73.8656 3.87091 74.6462 4.62102 75.1783 5.58918C75.7103 6.55735 75.9763 7.66943 75.9763 8.92543C75.9763 10.1901 75.7016 11.3022 75.1521 12.2617C74.6113 13.2124 73.8219 13.9581 72.784 14.4989C71.7548 15.031 70.525 15.297 69.0945 15.297H64.3322V12.1308H68.4796C69.2384 12.1308 69.8752 12 70.3898 11.7383C70.9131 11.468 71.3012 11.0929 71.5542 10.6132C71.8071 10.1335 71.9336 9.57087 71.9336 8.92543C71.9336 8.27998 71.8071 7.72176 71.5542 7.25076C71.3012 6.77104 70.9131 6.40471 70.3898 6.15177C69.8752 5.8901 69.2341 5.75927 68.4665 5.75927H65.7059V21.4723H61.7809V2.52769Z" fill="#D1D5DB"/>
<path d="M46.5383 2.52769H59.2553V5.77235H50.4633V10.3777H58.5881V13.6093H50.4633V18.2277H59.2815V21.4723H46.5383V2.52769Z" fill="#D1D5DB"/>
<path d="M29.3333 2.52767H33.2583V10.9272H33.5069L40.3887 2.52767H45.1249L38.0468 11.0057L45.2034 21.4723H40.4803L35.2339 13.6354L33.2583 16.0558V21.4723H29.3333V2.52767Z" fill="#D1D5DB"/>
<defs>
<clipPath id="clip0_104_2042">
<rect width="23.1111" height="24" fill="white"/>
</clipPath>
</defs>
</svg>
