<svg width="48" height="49" viewBox="0 0 48 49" fill="none" xmlns="http://www.w3.org/2000/svg">
<g clip-path="url(#clip0_103_1232)">
<path d="M23.2195 0.946472C20.2933 1.01855 17.4035 1.62981 14.6961 2.75116C11.8079 3.94748 9.18299 5.70181 6.97247 7.91229C4.76211 10.1227 3.00861 12.7469 1.81232 15.6349C0.615993 18.5231 -0.000164032 21.6192 -0.000183105 24.7453L0.00762939 25.3312C0.0797081 28.2575 0.690895 31.1472 1.81232 33.8547C3.00866 36.7429 4.76192 39.3678 6.97247 41.5783C9.18303 43.7889 11.8079 45.5421 14.6961 46.7385C17.4036 47.8599 20.2933 48.4711 23.2195 48.5432L23.8055 48.551C26.9316 48.5509 30.0277 47.9348 32.9158 46.7385C35.8038 45.5422 38.4281 43.7887 40.6385 41.5783C42.849 39.3678 44.6033 36.7428 45.7996 33.8547C46.921 31.1473 47.5322 28.2574 47.6043 25.3312L47.6111 24.7453C47.6111 21.6192 46.9959 18.5231 45.7996 15.6349C44.6033 12.7467 42.849 10.1228 40.6385 7.91229C38.428 5.70176 35.804 3.9475 32.9158 2.75116C30.0277 1.55485 26.9316 0.939656 23.8055 0.939636L23.2195 0.946472ZM21.9744 45.0666C19.9225 44.8817 17.9067 44.3879 15.9969 43.5969C13.5213 42.5714 11.2725 41.0678 9.37775 39.173C7.48302 37.2783 5.97935 35.0295 4.95392 32.5539C3.92854 30.0784 3.40122 27.4248 3.40118 24.7453L3.40704 24.2433C3.46875 21.7349 3.99262 19.2576 4.95392 16.9367C5.97935 14.4612 7.48303 12.2113 9.37775 10.3166C11.2723 8.42209 13.5216 6.9191 15.9969 5.89374C17.9067 5.10268 19.9225 4.60787 21.9744 4.42303V45.0666ZM37.4549 39.9113C35.7333 41.4608 33.7587 42.7085 31.6141 43.5969C29.7043 44.3879 27.6883 44.8808 25.6365 45.0656V28.093L37.4549 39.9113ZM25.6365 4.42303C27.6884 4.60807 29.7043 5.10268 31.6141 5.89374C34.0897 6.91917 36.3395 8.42185 38.2342 10.3166C40.1289 12.2113 41.6316 14.4611 42.657 16.9367C43.6824 19.4123 44.2107 22.0658 44.2108 24.7453L44.2039 25.2473C44.1422 27.7556 43.6183 30.2331 42.657 32.5539C41.9638 34.2274 41.0512 35.7968 39.9481 37.2238L25.6365 22.9142V4.42303Z" fill="url(#paint0_linear_103_1232)"/>
</g>
<defs>
<linearGradient id="paint0_linear_103_1232" x1="24.342" y1="24.2088" x2="40.6571" y2="40.524" gradientUnits="userSpaceOnUse">
<stop stop-color="#EE1D23"/>
<stop offset="1" stop-color="#0055FF"/>
</linearGradient>
<clipPath id="clip0_103_1232">
<rect width="47.6112" height="47.6112" fill="white" transform="translate(0 0.939575)"/>
</clipPath>
</defs>
</svg>
