<svg width="148" height="66" viewBox="0 0 148 66" fill="none" xmlns="http://www.w3.org/2000/svg">
<path d="M120.198 29H134.621C137.373 29 139.743 29.5266 141.731 30.5799C143.735 31.6162 145.256 33.0772 146.292 34.9629C147.328 36.8486 147.847 39.0146 147.847 41.4609C147.847 43.9242 147.311 46.0902 146.241 47.9589C145.188 49.8106 143.651 51.2631 141.629 52.3163C139.624 53.3526 137.229 53.8708 134.443 53.8708H125.167V47.704H133.245C134.723 47.704 135.963 47.4492 136.966 46.9396C137.985 46.4129 138.741 45.6824 139.234 44.7481C139.726 43.8137 139.973 42.718 139.973 41.4609C139.973 40.2037 139.726 39.1165 139.234 38.1991C138.741 37.2648 137.985 36.5513 136.966 36.0586C135.963 35.549 134.715 35.2941 133.22 35.2941H127.843V65.8984H120.198V29Z" fill="black"/>
<path d="M90.5103 29H115.279V35.3196H98.155V44.2894H113.98V50.5835H98.155V59.5788H115.33V65.8984H90.5103V29Z" fill="black"/>
<path d="M57 29H64.6447V45.3597H65.1289L78.5326 29H87.7572L73.9712 45.5126L87.9101 65.8984H78.711L68.4925 50.6345L64.6447 55.3488V65.8984H57V29Z" fill="black"/>
<path fill-rule="evenodd" clip-rule="evenodd" d="M23.2195 0.00689697C20.2933 0.0789708 17.4035 0.690234 14.6961 1.81158C11.8079 3.0079 9.183 4.76223 6.97247 6.97272C4.76211 9.18315 3.00861 11.8074 1.81232 14.6954C0.615992 17.5836 -0.000164105 20.6796 -0.000183105 23.8057L0.00762939 24.3917C0.0797074 27.318 0.690896 30.2076 1.81232 32.9151C3.00866 35.8033 4.76192 38.4282 6.97247 40.6387C9.18303 42.8493 11.8079 44.6025 14.6961 45.7989C17.4036 46.9203 20.2933 47.5315 23.2195 47.6036L23.8055 47.6114C26.9316 47.6114 30.0277 46.9952 32.9158 45.7989C35.8038 44.6026 38.4281 42.8491 40.6385 40.6387C42.849 38.4282 44.6033 35.8033 45.7996 32.9151C46.921 30.2077 47.5322 27.3179 47.6043 24.3917L47.6111 23.8057C47.6111 20.6796 46.9959 17.5835 45.7996 14.6954C44.6033 11.8072 42.849 9.18325 40.6385 6.97272C38.428 4.76218 35.804 3.00793 32.9158 1.81158C30.0277 0.615278 26.9316 8.10533e-05 23.8055 6.10352e-05L23.2195 0.00689697ZM21.9744 44.127C19.9225 43.9422 17.9067 43.4484 15.9969 42.6573C13.5213 41.6319 11.2725 40.1282 9.37775 38.2335C7.48302 36.3387 5.97935 34.0899 4.95392 31.6143C3.92853 29.1388 3.40122 26.4852 3.40118 23.8057L3.40704 23.3038C3.46875 20.7953 3.99262 18.318 4.95392 15.9971C5.97935 13.5216 7.48303 11.2717 9.37775 9.37701C11.2723 7.48251 13.5216 5.97953 15.9969 4.95416C17.9067 4.16311 19.9225 3.6683 21.9744 3.48346V44.127ZM37.4549 38.9717C35.7333 40.5212 33.7587 41.7689 31.6141 42.6573C29.7043 43.4483 27.6883 43.9412 25.6365 44.126V27.1534L37.4549 38.9717ZM25.6365 3.48346C27.6884 3.66849 29.7043 4.1631 31.6141 4.95416C34.0897 5.9796 36.3395 7.48227 38.2342 9.37701C40.1289 11.2718 41.6316 13.5215 42.657 15.9971C43.6824 18.4727 44.2107 21.1262 44.2108 23.8057L44.2039 24.3077C44.1422 26.8161 43.6183 29.2935 42.657 31.6143C41.9638 33.2878 41.0512 34.8572 39.9481 36.2842L25.6365 21.9747V3.48346Z" fill="url(#paint0_linear_165_1019)"/>
<defs>
<linearGradient id="paint0_linear_165_1019" x1="24.342" y1="23.2693" x2="40.6571" y2="39.5844" gradientUnits="userSpaceOnUse">
<stop stop-color="#EE1D23"/>
<stop offset="1" stop-color="#0055FF"/>
</linearGradient>
</defs>
</svg>
